<svg class="injected-svg" id="svg-5cad43ec-7abd-4409-92c8-531ccf2c296a" height="100%" width="100%" viewBox="0 0 540 508" xmlns="http://www.w3.org/2000/svg">
<g xmlns="http://www.w3.org/2000/svg" fill="#cf4d4f" id="shape-svg">
<title>Form</title>
<g id="lay_2" data-name="lay 2">
<g id="lay_1-2" data-name="lay 1">
<path transform="translate(50, 201) scale(1.4,1.4)" d="M75.73,0H0V75.73H315.53V0ZM310.48,70.68H75.73V5.05H310.48Z"></path>
</g>
</g>
</g>
<g xmlns="http://www.w3.org/2000/svg" fill="#343a40" id="icon-svg">
	<path transform="translate(54.5, 206.5) scale(0.5,0.5)" d="M 32.636 49.750 L 19.910 68.500 39.600 68.772 C 50.430 68.921, 59.430 68.904, 59.600 68.733 C 60.281 68.052, 67.698 32.449, 67.304 31.750 C 67.072 31.337, 62.040 31, 56.122 31 L 45.362 31 32.636 49.750 M 75.500 32.250 C 74.710 34.507, 68 66.108, 68 67.571 C 68 68.780, 73.003 69, 100.567 69 C 131.114 69, 133.103 68.891, 132.618 67.250 C 132.333 66.287, 130.702 59.425, 128.992 52 C 127.282 44.575, 125.442 36.813, 124.903 34.750 L 123.923 31 99.930 31 C 81.636 31, 75.833 31.297, 75.500 32.250 M 132.633 31.784 C 132.367 32.216, 134.042 40.653, 136.356 50.534 L 140.564 68.500 160.354 68.771 C 176.145 68.988, 179.994 68.786, 179.399 67.771 C 178.989 67.072, 173.239 58.513, 166.622 48.750 L 154.592 31 143.855 31 C 137.950 31, 132.900 31.353, 132.633 31.784 M 21 76.549 C 21 77.270, 87.908 160, 88.491 160 C 88.719 160, 84.827 148.188, 79.844 133.750 C 74.861 119.313, 68.431 100.525, 65.555 92 L 60.327 76.500 40.663 76.229 C 29.849 76.080, 21 76.224, 21 76.549 M 68.717 76.750 C 68.254 77.615, 99.245 167.994, 100 167.981 C 100.275 167.977, 107.438 147.841, 115.917 123.236 C 124.396 98.631, 131.532 77.938, 131.774 77.250 C 132.120 76.267, 125.472 76, 100.666 76 C 83.315 76, 68.937 76.338, 68.717 76.750 M 140 76.297 C 140 76.460, 136.811 85.798, 132.912 97.047 C 113.552 152.916, 111.145 160, 111.519 160 C 112.084 160, 179 77.269, 179 76.570 C 179 76.257, 170.225 76, 159.500 76 C 148.775 76, 140 76.134, 140 76.297" stroke="none" fill-rule="evenodd"></path>
</g>
<path xmlns="http://www.w3.org/2000/svg" id="SvgjsPath3079999" d="M9.69-7.14L9.69-14.23L27.49-14.23L27.49-7.14ZM9.69-21.37L9.69-28.56L27.49-28.56L27.49-21.37ZM31.06 0L34.58-3.52L34.58-14.23L31.06-17.80L34.58-21.37L34.58-32.08L31.06-35.70L2.55-35.70L2.55 0ZM39.68-35.70L39.68 0L69.97 0L69.97-7.14L46.82-7.14L46.82-35.70ZM80.17-17.80L80.17-21.37L87.26-28.56L97.97-28.56L97.97-17.80ZM80.17 0L80.17-10.66L97.97-10.66L97.97 0L105.06 0L105.06-35.70L83.69-35.70L73.03-24.94L73.03 0ZM138.67 0L142.19-3.52L142.19-10.66L135.10-10.66L135.10-7.14L117.30-7.14L117.30-28.56L135.10-28.56L135.10-24.99L142.19-24.99L142.19-32.08L138.67-35.70L113.68-35.70L110.16-32.08L110.16-3.52L113.68 0ZM153.92 0L153.92-14.23L164.58-14.23L171.72-7.14L171.72 0L178.81 0L178.81-10.66L171.72-17.80L178.81-24.94L178.81-35.70L171.72-35.70L171.72-28.51L164.58-21.37L153.92-21.37L153.92-35.70L146.78-35.70L146.78 0ZM196.09 0L196.09-35.70L181.87-35.70L181.87-28.56L189.01-28.56L189.01 0ZM224.60-28.56L224.60-24.94L199.67-7.14L199.67 0L231.69 0L231.69-7.14L211.80-7.14L231.69-21.37L231.69-32.08L228.17-35.70L203.18-35.70L199.67-32.08L199.67-24.99L206.81-24.99L206.81-28.56ZM248.98 0L265.25-28.56L265.25-35.70L233.22-35.70L233.22-28.56L256.84-28.56L240.36 0ZM282.03 0L298.30-28.56L298.30-35.70L266.27-35.70L266.27-28.56L289.88-28.56L273.41 0Z" fill="#343a40" fontsize="51" transform="matrix(1,0,0,1,171.575,272.35)"></path>
</svg>